<svg xmlns="http://www.w3.org/2000/svg" width="32" height="32" viewBox="0 0 32 32"><defs><style>.a,.b{fill:#597ef7;}.a{opacity:0;}</style></defs><g transform="translate(-40.125 -352.125)"><rect class="a" width="32" height="32" transform="translate(40.125 352.125)"/><path class="b" d="M13.017,20.079H5.559a1.212,1.212,0,1,1,0-2.423h7.459a1.212,1.212,0,1,1,0,2.423ZM5.559,12.635H15.684a1.212,1.212,0,1,1,0,2.423H5.558a1.212,1.212,0,1,1,0-2.423Zm0-5.194H18.524a1.212,1.212,0,1,1,0,2.423H5.558a1.212,1.212,0,1,1,0-2.423ZM14.618,20.6a7.039,7.039,0,0,1,7.107-6.924,5.072,5.072,0,0,1,1.6.172V3.5c0-2.251-1.957-3.5-4.444-3.5H4.671C2.183,0,.23,1.249.23,3.5v20c0,2.251,1.953,3.5,4.44,3.5H19.058A7.054,7.054,0,0,1,14.618,20.6Zm10.3-1.555h0l-.356.346h-.356l-1.243-1.213v-.345l.355-.345h.353L24.918,18.7l0,.345Zm-1.066,1.038-3.375,3.288a.627.627,0,0,1-.356.172l-1.6.172c-.178,0-.178,0-.178-.172l.178-1.558c0-.172,0-.172.178-.345l3.375-3.288h.356l1.243,1.209c.357.348.357.348.178.521Zm-2.131-4.673a5.368,5.368,0,1,0,5.506,5.366A5.465,5.465,0,0,0,21.725,15.406Z" transform="translate(42.895 355.125)"/></g></svg>